<mxfile host="app.diagrams.net" agent="Mozilla/5.0 (Windows NT 10.0; Win64; x64) AppleWebKit/537.36 (KHTML, like Gecko) Chrome/130.0.0.0 Safari/537.36 Edg/130.0.0.0" version="24.8.4">
  <diagram name="Page-1" id="gcERCdc71j_ptdc1VKXg">
    <mxGraphModel dx="2037" dy="1119" grid="1" gridSize="10" guides="1" tooltips="1" connect="1" arrows="1" fold="1" page="1" pageScale="1" pageWidth="827" pageHeight="1169" math="0" shadow="0">
      <root>
        <mxCell id="0" />
        <mxCell id="1" parent="0" />
        <mxCell id="Yw7mWfJsFS-c22KfxOxs-38" value="" style="rounded=0;whiteSpace=wrap;html=1;" vertex="1" parent="1">
          <mxGeometry x="30" y="20" width="860" height="860" as="geometry" />
        </mxCell>
        <mxCell id="Yw7mWfJsFS-c22KfxOxs-2" value="&lt;b&gt;Utilisateurs&lt;/b&gt;" style="swimlane;fontStyle=0;childLayout=stackLayout;horizontal=1;startSize=30;horizontalStack=0;resizeParent=1;resizeParentMax=0;resizeLast=0;collapsible=1;marginBottom=0;whiteSpace=wrap;html=1;swimlaneFillColor=default;rounded=1;fillColor=#dae8fc;strokeColor=#6c8ebf;swimlaneLine=1;arcSize=14;" vertex="1" parent="1">
          <mxGeometry x="380" y="90" width="130" height="210" as="geometry">
            <mxRectangle x="380" y="90" width="110" height="30" as="alternateBounds" />
          </mxGeometry>
        </mxCell>
        <mxCell id="Yw7mWfJsFS-c22KfxOxs-36" value="&lt;span style=&quot;font-family: monospace;&quot;&gt;architectId&lt;/span&gt;" style="text;strokeColor=none;fillColor=none;align=left;verticalAlign=middle;spacingLeft=4;spacingRight=4;overflow=hidden;points=[[0,0.5],[1,0.5]];portConstraint=eastwest;rotatable=0;whiteSpace=wrap;html=1;" vertex="1" parent="Yw7mWfJsFS-c22KfxOxs-2">
          <mxGeometry y="30" width="130" height="30" as="geometry" />
        </mxCell>
        <mxCell id="Yw7mWfJsFS-c22KfxOxs-3" value="nom" style="text;strokeColor=none;fillColor=none;align=left;verticalAlign=middle;spacingLeft=4;spacingRight=4;overflow=hidden;points=[[0,0.5],[1,0.5]];portConstraint=eastwest;rotatable=0;whiteSpace=wrap;html=1;" vertex="1" parent="Yw7mWfJsFS-c22KfxOxs-2">
          <mxGeometry y="60" width="130" height="30" as="geometry" />
        </mxCell>
        <mxCell id="Yw7mWfJsFS-c22KfxOxs-4" value="email" style="text;strokeColor=none;fillColor=none;align=left;verticalAlign=middle;spacingLeft=4;spacingRight=4;overflow=hidden;points=[[0,0.5],[1,0.5]];portConstraint=eastwest;rotatable=0;whiteSpace=wrap;html=1;" vertex="1" parent="Yw7mWfJsFS-c22KfxOxs-2">
          <mxGeometry y="90" width="130" height="30" as="geometry" />
        </mxCell>
        <mxCell id="Yw7mWfJsFS-c22KfxOxs-5" value="mot_de_passe" style="text;strokeColor=none;fillColor=none;align=left;verticalAlign=middle;spacingLeft=4;spacingRight=4;overflow=hidden;points=[[0,0.5],[1,0.5]];portConstraint=eastwest;rotatable=0;whiteSpace=wrap;html=1;" vertex="1" parent="Yw7mWfJsFS-c22KfxOxs-2">
          <mxGeometry y="120" width="130" height="30" as="geometry" />
        </mxCell>
        <mxCell id="Yw7mWfJsFS-c22KfxOxs-6" value="&lt;code&gt;role&lt;/code&gt;" style="text;strokeColor=none;fillColor=none;align=left;verticalAlign=middle;spacingLeft=4;spacingRight=4;overflow=hidden;points=[[0,0.5],[1,0.5]];portConstraint=eastwest;rotatable=0;whiteSpace=wrap;html=1;" vertex="1" parent="Yw7mWfJsFS-c22KfxOxs-2">
          <mxGeometry y="150" width="130" height="30" as="geometry" />
        </mxCell>
        <mxCell id="Yw7mWfJsFS-c22KfxOxs-7" value="createdAt" style="text;strokeColor=none;fillColor=none;align=left;verticalAlign=middle;spacingLeft=4;spacingRight=4;overflow=hidden;points=[[0,0.5],[1,0.5]];portConstraint=eastwest;rotatable=0;whiteSpace=wrap;html=1;" vertex="1" parent="Yw7mWfJsFS-c22KfxOxs-2">
          <mxGeometry y="180" width="130" height="30" as="geometry" />
        </mxCell>
        <mxCell id="Yw7mWfJsFS-c22KfxOxs-8" value="&lt;b&gt;Projets&lt;/b&gt;" style="swimlane;fontStyle=0;childLayout=stackLayout;horizontal=1;startSize=30;horizontalStack=0;resizeParent=1;resizeParentMax=0;resizeLast=0;collapsible=1;marginBottom=0;whiteSpace=wrap;html=1;rounded=1;fillColor=#dae8fc;strokeColor=#6c8ebf;swimlaneFillColor=default;" vertex="1" parent="1">
          <mxGeometry x="380" y="470" width="180" height="330" as="geometry" />
        </mxCell>
        <mxCell id="Yw7mWfJsFS-c22KfxOxs-31" value="projetId" style="text;strokeColor=none;fillColor=none;align=left;verticalAlign=middle;spacingLeft=4;spacingRight=4;overflow=hidden;points=[[0,0.5],[1,0.5]];portConstraint=eastwest;rotatable=0;whiteSpace=wrap;html=1;" vertex="1" parent="Yw7mWfJsFS-c22KfxOxs-8">
          <mxGeometry y="30" width="180" height="30" as="geometry" />
        </mxCell>
        <mxCell id="Yw7mWfJsFS-c22KfxOxs-9" value="nom" style="text;strokeColor=none;fillColor=none;align=left;verticalAlign=middle;spacingLeft=4;spacingRight=4;overflow=hidden;points=[[0,0.5],[1,0.5]];portConstraint=eastwest;rotatable=0;whiteSpace=wrap;html=1;" vertex="1" parent="Yw7mWfJsFS-c22KfxOxs-8">
          <mxGeometry y="60" width="180" height="30" as="geometry" />
        </mxCell>
        <mxCell id="Yw7mWfJsFS-c22KfxOxs-10" value="description" style="text;strokeColor=none;fillColor=none;align=left;verticalAlign=middle;spacingLeft=4;spacingRight=4;overflow=hidden;points=[[0,0.5],[1,0.5]];portConstraint=eastwest;rotatable=0;whiteSpace=wrap;html=1;" vertex="1" parent="Yw7mWfJsFS-c22KfxOxs-8">
          <mxGeometry y="90" width="180" height="30" as="geometry" />
        </mxCell>
        <mxCell id="Yw7mWfJsFS-c22KfxOxs-11" value="clientId" style="text;strokeColor=none;fillColor=none;align=left;verticalAlign=middle;spacingLeft=4;spacingRight=4;overflow=hidden;points=[[0,0.5],[1,0.5]];portConstraint=eastwest;rotatable=0;whiteSpace=wrap;html=1;" vertex="1" parent="Yw7mWfJsFS-c22KfxOxs-8">
          <mxGeometry y="120" width="180" height="30" as="geometry" />
        </mxCell>
        <mxCell id="Yw7mWfJsFS-c22KfxOxs-12" value="&lt;code&gt;architectId&lt;/code&gt;" style="text;strokeColor=none;fillColor=none;align=left;verticalAlign=middle;spacingLeft=4;spacingRight=4;overflow=hidden;points=[[0,0.5],[1,0.5]];portConstraint=eastwest;rotatable=0;whiteSpace=wrap;html=1;" vertex="1" parent="Yw7mWfJsFS-c22KfxOxs-8">
          <mxGeometry y="150" width="180" height="30" as="geometry" />
        </mxCell>
        <mxCell id="Yw7mWfJsFS-c22KfxOxs-13" value="statut" style="text;strokeColor=none;fillColor=none;align=left;verticalAlign=middle;spacingLeft=4;spacingRight=4;overflow=hidden;points=[[0,0.5],[1,0.5]];portConstraint=eastwest;rotatable=0;whiteSpace=wrap;html=1;" vertex="1" parent="Yw7mWfJsFS-c22KfxOxs-8">
          <mxGeometry y="180" width="180" height="30" as="geometry" />
        </mxCell>
        <mxCell id="Yw7mWfJsFS-c22KfxOxs-14" value="date_debut" style="text;strokeColor=none;fillColor=none;align=left;verticalAlign=middle;spacingLeft=4;spacingRight=4;overflow=hidden;points=[[0,0.5],[1,0.5]];portConstraint=eastwest;rotatable=0;whiteSpace=wrap;html=1;" vertex="1" parent="Yw7mWfJsFS-c22KfxOxs-8">
          <mxGeometry y="210" width="180" height="30" as="geometry" />
        </mxCell>
        <mxCell id="Yw7mWfJsFS-c22KfxOxs-15" value="date_fin" style="text;strokeColor=none;fillColor=none;align=left;verticalAlign=middle;spacingLeft=4;spacingRight=4;overflow=hidden;points=[[0,0.5],[1,0.5]];portConstraint=eastwest;rotatable=0;whiteSpace=wrap;html=1;" vertex="1" parent="Yw7mWfJsFS-c22KfxOxs-8">
          <mxGeometry y="240" width="180" height="30" as="geometry" />
        </mxCell>
        <mxCell id="Yw7mWfJsFS-c22KfxOxs-16" value="&lt;code&gt;fichiers&lt;/code&gt;" style="text;strokeColor=none;fillColor=none;align=left;verticalAlign=middle;spacingLeft=4;spacingRight=4;overflow=hidden;points=[[0,0.5],[1,0.5]];portConstraint=eastwest;rotatable=0;whiteSpace=wrap;html=1;" vertex="1" parent="Yw7mWfJsFS-c22KfxOxs-8">
          <mxGeometry y="270" width="180" height="30" as="geometry" />
        </mxCell>
        <mxCell id="Yw7mWfJsFS-c22KfxOxs-17" value="&lt;code&gt;createdAt&lt;/code&gt;" style="text;strokeColor=none;fillColor=none;align=left;verticalAlign=middle;spacingLeft=4;spacingRight=4;overflow=hidden;points=[[0,0.5],[1,0.5]];portConstraint=eastwest;rotatable=0;whiteSpace=wrap;html=1;" vertex="1" parent="Yw7mWfJsFS-c22KfxOxs-8">
          <mxGeometry y="300" width="180" height="30" as="geometry" />
        </mxCell>
        <mxCell id="Yw7mWfJsFS-c22KfxOxs-18" value="&lt;b&gt;Clients&lt;/b&gt;" style="swimlane;fontStyle=0;childLayout=stackLayout;horizontal=1;startSize=30;horizontalStack=0;resizeParent=1;resizeParentMax=0;resizeLast=0;collapsible=1;marginBottom=0;whiteSpace=wrap;html=1;rounded=1;swimlaneLine=1;fillColor=#dae8fc;strokeColor=#6c8ebf;swimlaneFillColor=default;" vertex="1" parent="1">
          <mxGeometry x="140" y="260" width="130" height="210" as="geometry" />
        </mxCell>
        <mxCell id="Yw7mWfJsFS-c22KfxOxs-32" value="clientId" style="text;strokeColor=none;fillColor=none;align=left;verticalAlign=middle;spacingLeft=4;spacingRight=4;overflow=hidden;points=[[0,0.5],[1,0.5]];portConstraint=eastwest;rotatable=0;whiteSpace=wrap;html=1;" vertex="1" parent="Yw7mWfJsFS-c22KfxOxs-18">
          <mxGeometry y="30" width="130" height="30" as="geometry" />
        </mxCell>
        <mxCell id="Yw7mWfJsFS-c22KfxOxs-19" value="nom" style="text;strokeColor=none;fillColor=none;align=left;verticalAlign=middle;spacingLeft=4;spacingRight=4;overflow=hidden;points=[[0,0.5],[1,0.5]];portConstraint=eastwest;rotatable=0;whiteSpace=wrap;html=1;" vertex="1" parent="Yw7mWfJsFS-c22KfxOxs-18">
          <mxGeometry y="60" width="130" height="30" as="geometry" />
        </mxCell>
        <mxCell id="Yw7mWfJsFS-c22KfxOxs-20" value="contact" style="text;strokeColor=none;fillColor=none;align=left;verticalAlign=middle;spacingLeft=4;spacingRight=4;overflow=hidden;points=[[0,0.5],[1,0.5]];portConstraint=eastwest;rotatable=0;whiteSpace=wrap;html=1;" vertex="1" parent="Yw7mWfJsFS-c22KfxOxs-18">
          <mxGeometry y="90" width="130" height="30" as="geometry" />
        </mxCell>
        <mxCell id="Yw7mWfJsFS-c22KfxOxs-21" value="adresse" style="text;strokeColor=none;fillColor=none;align=left;verticalAlign=middle;spacingLeft=4;spacingRight=4;overflow=hidden;points=[[0,0.5],[1,0.5]];portConstraint=eastwest;rotatable=0;whiteSpace=wrap;html=1;" vertex="1" parent="Yw7mWfJsFS-c22KfxOxs-18">
          <mxGeometry y="120" width="130" height="30" as="geometry" />
        </mxCell>
        <mxCell id="Yw7mWfJsFS-c22KfxOxs-22" value="&lt;code&gt;email&lt;/code&gt;" style="text;strokeColor=none;fillColor=none;align=left;verticalAlign=middle;spacingLeft=4;spacingRight=4;overflow=hidden;points=[[0,0.5],[1,0.5]];portConstraint=eastwest;rotatable=0;whiteSpace=wrap;html=1;" vertex="1" parent="Yw7mWfJsFS-c22KfxOxs-18">
          <mxGeometry y="150" width="130" height="30" as="geometry" />
        </mxCell>
        <mxCell id="Yw7mWfJsFS-c22KfxOxs-23" value="projets_associes" style="text;strokeColor=none;fillColor=none;align=left;verticalAlign=middle;spacingLeft=4;spacingRight=4;overflow=hidden;points=[[0,0.5],[1,0.5]];portConstraint=eastwest;rotatable=0;whiteSpace=wrap;html=1;" vertex="1" parent="Yw7mWfJsFS-c22KfxOxs-18">
          <mxGeometry y="180" width="130" height="30" as="geometry" />
        </mxCell>
        <mxCell id="Yw7mWfJsFS-c22KfxOxs-30" style="rounded=1;orthogonalLoop=1;jettySize=auto;html=1;edgeStyle=orthogonalEdgeStyle;endArrow=ERmandOne;endFill=0;jumpStyle=arc;curved=0;strokeColor=default;startArrow=ERoneToMany;startFill=0;" edge="1" parent="1" source="Yw7mWfJsFS-c22KfxOxs-24" target="Yw7mWfJsFS-c22KfxOxs-31">
          <mxGeometry relative="1" as="geometry">
            <Array as="points">
              <mxPoint x="679" y="405" />
              <mxPoint x="679" y="520" />
            </Array>
          </mxGeometry>
        </mxCell>
        <mxCell id="Yw7mWfJsFS-c22KfxOxs-24" value="&lt;strong&gt;Ressources&lt;/strong&gt;" style="swimlane;fontStyle=0;childLayout=stackLayout;horizontal=1;startSize=30;horizontalStack=0;resizeParent=1;resizeParentMax=0;resizeLast=0;collapsible=1;marginBottom=0;whiteSpace=wrap;html=1;rounded=1;fillColor=#dae8fc;strokeColor=#6c8ebf;swimlaneFillColor=default;" vertex="1" parent="1">
          <mxGeometry x="700" y="340" width="130" height="150" as="geometry" />
        </mxCell>
        <mxCell id="Yw7mWfJsFS-c22KfxOxs-25" value="url" style="text;strokeColor=none;fillColor=none;align=left;verticalAlign=middle;spacingLeft=4;spacingRight=4;overflow=hidden;points=[[0,0.5],[1,0.5]];portConstraint=eastwest;rotatable=0;whiteSpace=wrap;html=1;" vertex="1" parent="Yw7mWfJsFS-c22KfxOxs-24">
          <mxGeometry y="30" width="130" height="30" as="geometry" />
        </mxCell>
        <mxCell id="Yw7mWfJsFS-c22KfxOxs-26" value="projetId" style="text;strokeColor=none;fillColor=none;align=left;verticalAlign=middle;spacingLeft=4;spacingRight=4;overflow=hidden;points=[[0,0.5],[1,0.5]];portConstraint=eastwest;rotatable=0;whiteSpace=wrap;html=1;" vertex="1" parent="Yw7mWfJsFS-c22KfxOxs-24">
          <mxGeometry y="60" width="130" height="30" as="geometry" />
        </mxCell>
        <mxCell id="Yw7mWfJsFS-c22KfxOxs-27" value="type" style="text;strokeColor=none;fillColor=none;align=left;verticalAlign=middle;spacingLeft=4;spacingRight=4;overflow=hidden;points=[[0,0.5],[1,0.5]];portConstraint=eastwest;rotatable=0;whiteSpace=wrap;html=1;" vertex="1" parent="Yw7mWfJsFS-c22KfxOxs-24">
          <mxGeometry y="90" width="130" height="30" as="geometry" />
        </mxCell>
        <mxCell id="Yw7mWfJsFS-c22KfxOxs-28" value="&lt;code&gt;createdAt&lt;/code&gt;" style="text;strokeColor=none;fillColor=none;align=left;verticalAlign=middle;spacingLeft=4;spacingRight=4;overflow=hidden;points=[[0,0.5],[1,0.5]];portConstraint=eastwest;rotatable=0;whiteSpace=wrap;html=1;" vertex="1" parent="Yw7mWfJsFS-c22KfxOxs-24">
          <mxGeometry y="120" width="130" height="30" as="geometry" />
        </mxCell>
        <mxCell id="Yw7mWfJsFS-c22KfxOxs-35" style="edgeStyle=orthogonalEdgeStyle;rounded=0;orthogonalLoop=1;jettySize=auto;html=1;startArrow=ERmandOne;startFill=0;endArrow=ERoneToMany;endFill=0;entryX=0;entryY=0.5;entryDx=0;entryDy=0;" edge="1" parent="1" source="Yw7mWfJsFS-c22KfxOxs-21" target="Yw7mWfJsFS-c22KfxOxs-11">
          <mxGeometry relative="1" as="geometry">
            <mxPoint x="320" y="600" as="targetPoint" />
            <Array as="points">
              <mxPoint x="320" y="395" />
              <mxPoint x="320" y="605" />
            </Array>
          </mxGeometry>
        </mxCell>
        <mxCell id="Yw7mWfJsFS-c22KfxOxs-37" style="edgeStyle=orthogonalEdgeStyle;rounded=0;orthogonalLoop=1;jettySize=auto;html=1;entryX=0.556;entryY=0;entryDx=0;entryDy=0;entryPerimeter=0;exitX=0.523;exitY=1;exitDx=0;exitDy=0;exitPerimeter=0;endArrow=ERmandOne;endFill=0;startArrow=ERoneToMany;startFill=0;" edge="1" parent="1" source="Yw7mWfJsFS-c22KfxOxs-7" target="Yw7mWfJsFS-c22KfxOxs-8">
          <mxGeometry relative="1" as="geometry">
            <Array as="points">
              <mxPoint x="448" y="390" />
              <mxPoint x="480" y="390" />
            </Array>
          </mxGeometry>
        </mxCell>
      </root>
    </mxGraphModel>
  </diagram>
</mxfile>
